<svg viewBox="0 0 16 16">
	<path fill="none" stroke="currentColor" d="M15.43,7.74c-0.069-0.112-1.038-1.688-2.589-3.082l-0.66,0.77C13.278,6.417,14.075,7.509,14.41,8c-0.67,0.99-3.24,4.5-6.41,4.5c-0.564,0-1.102-0.122-1.616-0.31l-0.688,0.803C6.413,13.3,7.183,13.5,8,13.5c4.23,0,7.3-5.03,7.43-5.24L15.58,8L15.43,7.74z" />
	<path fill="none" stroke="currentColor" d="M10.434,7.465C10.473,7.637,10.5,7.814,10.5,8c0,1.38-1.12,2.5-2.5,2.5c-0.052,0-0.099-0.017-0.15-0.02l-0.763,0.89C7.378,11.451,7.683,11.5,8,11.5c1.93,0,3.5-1.57,3.5-3.5c0-0.504-0.121-0.976-0.318-1.407L10.434,7.465z" />
	<path fill="none" stroke="currentColor" d="M14.33,0.62c-0.21-0.18-0.53-0.15-0.71,0.05l-2.395,2.797C10.266,2.899,9.178,2.5,8,2.5c-4.23,0-7.3,5.03-7.43,5.24L0.42,8l0.15,0.26c0.08,0.13,1.36,2.22,3.36,3.72l-2.31,2.69c-0.18,0.21-0.16,0.53,0.05,0.71C1.77,15.46,1.88,15.5,2,15.5c0.14,0,0.28-0.06,0.38-0.17l2.842-3.32l0.218-0.25l5.97-6.97l0.147-0.171L14.38,1.33C14.56,1.12,14.54,0.8,14.33,0.62z M5.5,8c0-1.38,1.12-2.5,2.5-2.5c0.439,0,0.848,0.12,1.208,0.319L6.03,9.529C5.7,9.1,5.5,8.58,5.5,8z M1.6,8C2.26,7.01,4.84,3.5,8,3.5c0.92,0,1.78,0.3,2.56,0.74L9.867,5.049C9.328,4.709,8.689,4.5,8,4.5C6.07,4.5,4.5,6.07,4.5,8c0,0.879,0.34,1.679,0.879,2.289L4.59,11.21C3.09,10.1,2,8.6,1.6,8z" />
</svg>
